<svg width="458" height="480" viewBox="0 0 458 480" fill="none" xmlns="http://www.w3.org/2000/svg">
<path fill-rule="evenodd" clip-rule="evenodd" d="M229 479.057C355.473 479.057 458 371.817 458 239.529C458 107.241 355.473 0 229 0C102.527 0 0 107.241 0 239.529C0 371.817 102.527 479.057 229 479.057ZM229 470.446C350.927 470.446 449.767 367.061 449.767 239.529C449.767 111.996 350.927 8.61115 229 8.61115C107.074 8.61115 8.23273 111.996 8.23273 239.529C8.23273 367.061 107.074 470.446 229 470.446Z" fill="url(#paint0_linear_29_128)"/>
<path fill-rule="evenodd" clip-rule="evenodd" d="M408.604 239.529C408.604 343.282 328.192 427.39 228.999 427.39C129.807 427.39 49.3954 343.282 49.3954 239.529C49.3954 135.775 129.807 51.6669 228.999 51.6669C328.192 51.6669 408.604 135.775 408.604 239.529ZM221.115 389.212C210.101 360.841 201.606 328.389 196.942 293.886C160.616 289.136 124.488 276.502 90.4333 255.505C97.5735 328.022 152.77 385.111 221.115 389.212ZM238.948 389.072C305.953 383.987 359.879 327.935 367.44 256.731C334.903 276.622 299.435 289.184 262.998 293.916C258.646 328.367 250.344 360.811 238.948 389.072ZM367.605 223.956C360.697 151.95 306.42 95.0637 238.867 89.9795C251.398 120.977 259.343 153.733 263.341 186.626C298.126 191.644 333.107 204.018 367.605 223.956ZM90.3731 224.177C124.264 203.624 159.665 190.862 195.777 186.133C199.625 153.59 207.549 121.032 220.473 89.8855C152.229 94.3174 97.2355 151.59 90.3731 224.177ZM313.769 239.556C251.449 268.68 210.806 266.25 145.777 239.555C210.806 212.807 246.03 212.807 313.769 239.556Z" fill="url(#paint1_linear_29_128)"/>
<defs>
<linearGradient id="paint0_linear_29_128" x1="229" y1="0" x2="229" y2="479.057" gradientUnits="userSpaceOnUse">
<stop stop-color="#914531"/>
<stop offset="1" stop-color="#C47F3B"/>
</linearGradient>
<linearGradient id="paint1_linear_29_128" x1="229" y1="0" x2="229" y2="479.057" gradientUnits="userSpaceOnUse">
<stop stop-color="#914531"/>
<stop offset="1" stop-color="#C47F3B"/>
</linearGradient>
</defs>
</svg>
