<svg width="1083" height="183" viewBox="0 0 1083 183" fill="none" xmlns="http://www.w3.org/2000/svg">
<path fill-rule="evenodd" clip-rule="evenodd" d="M116.888 0.00148195C151.685 0.221874 179.826 28.4947 179.826 63.3394V118.847C179.826 153.828 151.464 182.186 116.478 182.186H63.3479C28.4986 182.186 0.22197 154.049 0.00148195 119.256L0 118.847V63.3394C5.29853e-05 28.4947 28.1407 0.221871 62.9381 0.00148195L63.3479 0H116.478L116.888 0.00148195ZM127.276 66.7241C125.389 66.0579 123.48 67.5108 123.477 69.5121L123.365 139.493C123.362 141.169 122.001 142.526 120.325 142.523L84.8647 142.466C83.1885 142.463 81.8276 143.82 81.8249 145.496L81.8041 158.428C81.8014 160.106 83.1611 161.468 84.8391 161.468H119.505C126.941 161.468 133.897 159.41 139.834 155.833C150.949 147.229 156.974 133.37 157.004 114.542C157.044 89.6238 146.423 73.4842 127.276 66.7241ZM84.9918 63.067C83.3156 63.0644 81.9546 64.4211 81.9519 66.0973L81.8686 117.991C81.8659 119.667 83.2226 121.028 84.8988 121.031L94.467 121.046C96.1432 121.049 97.5042 119.692 97.5069 118.016L97.5899 66.1221C97.5925 64.4459 96.2358 63.0849 94.5596 63.0822L84.9918 63.067ZM60.3214 20.7181C57.3288 20.7181 54.4142 21.0516 51.6123 21.6828C32.8995 28.532 22.4946 44.5438 22.4553 69.1468C22.4152 94.2185 33.0336 110.514 52.1754 117.346C54.0634 118.02 55.9786 116.567 55.9818 114.563L56.0948 44.1962C56.0975 42.5201 57.4585 41.1634 59.1347 41.166L94.5945 41.2223C96.2706 41.225 97.6316 39.8683 97.6343 38.1921L97.6577 23.7579C97.6603 22.0799 96.3007 20.7181 94.6226 20.7181H60.3214Z" fill="url(#paint0_linear_56_15)"/>
<path d="M788.818 135.564C775.781 135.564 762.481 130.165 754.317 118.972L765.905 106.33C772.621 115.416 780.653 118.972 788.423 118.972C795.929 118.972 801.854 115.284 801.854 109.095C801.854 100.931 796.587 98.429 785.394 94.3468C768.144 88.1578 760.111 81.1786 760.111 66.9568C760.111 51.945 773.147 41.6737 790.925 41.6737C805.146 41.6737 814.628 47.4677 821.212 54.842L810.545 66.9568C804.751 60.636 797.377 58.2657 791.188 58.2657C784.472 58.2657 779.995 61.1628 779.995 66.2984C779.995 72.2241 785.131 74.9895 795.534 78.4132C812.389 84.0756 821.607 91.4498 821.607 107.383C821.607 124.239 808.438 135.564 788.818 135.564ZM831.987 133.983V43.1222H850.818V133.983H831.987ZM885.471 133.983V59.5826H858.081V43.1222H931.428V59.5826H904.17V133.983H885.471ZM938.727 133.983V43.1222H1007.6V59.1875H957.558V79.73H991.137V95.532H957.558V118.181H1007.6V133.983H938.727ZM1046.28 135.564C1033.24 135.564 1019.94 130.165 1011.78 118.972L1023.37 106.33C1030.08 115.416 1038.11 118.972 1045.88 118.972C1053.39 118.972 1059.31 115.284 1059.31 109.095C1059.31 100.931 1054.05 98.429 1042.85 94.3468C1025.6 88.1578 1017.57 81.1786 1017.57 66.9568C1017.57 51.945 1030.61 41.6737 1048.39 41.6737C1062.61 41.6737 1072.09 47.4677 1078.67 54.842L1068.01 66.9568C1062.21 60.636 1054.84 58.2657 1048.65 58.2657C1041.93 58.2657 1037.46 61.1628 1037.46 66.2984C1037.46 72.2241 1042.59 74.9895 1052.99 78.4132C1069.85 84.0756 1079.07 91.4498 1079.07 107.383C1079.07 124.239 1065.9 135.564 1046.28 135.564Z" fill="url(#paint1_linear_56_15)"/>
<defs>
<linearGradient id="paint0_linear_56_15" x1="179.826" y1="64.6281" x2="14.3729" y2="66.8215" gradientUnits="userSpaceOnUse">
<stop offset="0.0480769" stop-color="#BA61E6"/>
<stop offset="0.4947" stop-color="#B64CF1"/>
<stop offset="1" stop-color="#6A009F"/>
</linearGradient>
<linearGradient id="paint1_linear_56_15" x1="1083" y1="77.3255" x2="779.704" y2="88.0799" gradientUnits="userSpaceOnUse">
<stop offset="0.0480769" stop-color="#BA61E6"/>
<stop offset="0.4947" stop-color="#B64CF1"/>
<stop offset="1" stop-color="#6A009F"/>
</linearGradient>
</defs>
</svg>
