<svg width="1059" height="143" viewBox="0 0 1059 143" fill="none" xmlns="http://www.w3.org/2000/svg">
<path d="M101.022 50.5117C101.025 48.5107 102.934 47.0584 104.821 47.7246C123.968 54.4847 134.589 70.6239 134.549 95.542C134.519 114.37 128.495 128.23 117.38 136.833C111.443 140.41 104.487 142.468 97.0499 142.468H62.3839C60.706 142.468 59.3471 141.106 59.3497 139.428L59.3702 126.496C59.373 124.82 60.7341 123.463 62.4103 123.466L97.8702 123.523C99.5463 123.526 100.907 122.169 100.91 120.493L101.022 50.5117Z" fill="white"/>
<path d="M72.1046 44.082C73.7808 44.0847 75.1375 45.4459 75.1349 47.1221L75.0519 99.0156C75.0492 100.692 73.688 102.049 72.0118 102.046L62.4435 102.03C60.7676 102.027 59.4117 100.667 59.4142 98.9912L59.4972 47.0977C59.4999 45.4215 60.861 44.0647 62.5372 44.0674L72.1046 44.082Z" fill="white"/>
<path d="M72.1681 1.71777C73.846 1.71798 75.2058 3.07991 75.2032 4.75781L75.1798 19.1924C75.177 20.8684 73.8158 22.2252 72.1398 22.2227L36.6798 22.166C35.0036 22.1634 33.6425 23.5201 33.6398 25.1963L33.5275 95.5625C33.5242 97.5671 31.6087 99.0204 29.7208 98.3467C10.579 91.5138 -0.0399302 75.2183 0.000112838 50.1465C0.0394921 25.5437 10.4446 9.53182 29.1573 2.68262C31.9591 2.05138 34.8738 1.71779 37.8663 1.71777H72.1681Z" fill="white"/>
<path d="M208.486 113V14.1481H243.013C275.104 14.1481 295.447 32.6291 295.447 63.5741C295.447 94.3757 275.104 113 243.013 113H208.486ZM228.973 95.9516H242.153C262.497 95.9516 274.674 84.6338 274.674 63.5741C274.674 42.8009 262.353 31.483 242.153 31.483H228.973V95.9516ZM339.127 115.006C316.348 115.006 299.443 98.2439 299.443 75.3217C299.443 52.3995 316.061 35.4944 338.697 35.4944C359.041 35.4944 377.808 48.9612 377.808 80.3359V81.3387H320.216C322.365 92.9431 329.815 97.8141 339.127 97.8141C346.004 97.8141 352.594 95.0921 356.748 89.5048L371.791 99.6765C365.344 107.556 355.745 115.006 339.127 115.006ZM320.216 67.7287H356.175C354.743 58.2733 348.296 52.2562 338.554 52.2562C330.101 52.2562 322.222 56.9839 320.216 67.7287ZM385.871 113V37.5001H404.925V47.3853H405.212C409.51 41.0817 415.956 35.6377 427.847 35.6377C439.308 35.6377 447.331 40.9384 451.486 49.1044C456.07 42.3711 463.52 35.6377 476.843 35.6377C495.324 35.6377 504.637 48.1016 504.637 67.1557V113H484.58V72.8862C484.58 62.1414 481.285 54.1187 470.826 54.1187C460.368 54.1187 455.354 61.8549 455.354 72.7429V113H435.44V72.7429C435.44 61.9982 432.145 54.1187 421.4 54.1187C410.942 54.1187 405.928 61.8549 405.928 72.8862V113H385.871ZM551.375 115.006C528.596 115.006 511.691 98.2439 511.691 75.3217C511.691 52.3995 528.31 35.4944 550.945 35.4944C571.289 35.4944 590.056 48.9612 590.056 80.3359V81.3387H532.464C534.613 92.9431 542.063 97.8141 551.375 97.8141C558.252 97.8141 564.842 95.0921 568.997 89.5048L584.039 99.6765C577.592 107.556 567.994 115.006 551.375 115.006ZM532.464 67.7287H568.424C566.991 58.2733 560.544 52.2562 550.802 52.2562C542.35 52.2562 534.47 56.9839 532.464 67.7287ZM598.119 113V37.5001H617.03V47.5285H617.317C621.901 41.0817 628.921 35.7809 640.955 35.7809C660.153 35.7809 669.465 48.1016 669.465 67.4422V113H649.408V72.8862C649.408 61.9982 645.969 54.2619 634.795 54.2619C623.477 54.2619 618.176 61.9982 618.176 73.0295V113H598.119ZM681.669 113V37.5001H701.726V113H681.669ZM679.807 17.4432C679.807 10.8531 685.107 5.40906 691.697 5.40906C698.574 5.40906 703.875 10.8531 703.875 17.4432C703.875 24.3199 698.574 29.4773 691.697 29.4773C685.107 29.4773 679.807 24.3199 679.807 17.4432Z" fill="white"/>
<path d="M764.363 116.564C751.326 116.564 738.026 111.165 729.862 99.9715L741.45 87.33C748.166 96.4161 756.198 99.9715 763.968 99.9715C771.474 99.9715 777.399 96.2844 777.399 90.0953C777.399 81.931 772.132 79.429 760.939 75.3468C743.688 69.1578 735.656 62.1786 735.656 47.9568C735.656 32.945 748.692 22.6737 766.47 22.6737C780.691 22.6737 790.173 28.4677 796.757 35.842L786.09 47.9568C780.296 41.636 772.922 39.2657 766.733 39.2657C760.017 39.2657 755.54 42.1628 755.54 47.2984C755.54 53.2241 760.676 55.9895 771.078 59.4132C787.934 65.0756 797.152 72.4498 797.152 88.3835C797.152 105.239 783.983 116.564 764.363 116.564ZM807.532 114.983V24.1222H826.363V114.983H807.532ZM861.016 114.983V40.5826H833.626V24.1222H906.973V40.5826H879.715V114.983H861.016ZM914.272 114.983V24.1222H983.142V40.1875H933.103V60.73H966.682V76.532H933.103V99.1815H983.142V114.983H914.272ZM1021.82 116.564C1008.79 116.564 995.487 111.165 987.322 99.9715L998.91 87.33C1005.63 96.4161 1013.66 99.9715 1021.43 99.9715C1028.93 99.9715 1034.86 96.2844 1034.86 90.0953C1034.86 81.931 1029.59 79.429 1018.4 75.3468C1001.15 69.1578 993.116 62.1786 993.116 47.9568C993.116 32.945 1006.15 22.6737 1023.93 22.6737C1038.15 22.6737 1047.63 28.4677 1054.22 35.842L1043.55 47.9568C1037.76 41.636 1030.38 39.2657 1024.19 39.2657C1017.48 39.2657 1013 42.1628 1013 47.2984C1013 53.2241 1018.14 55.9895 1028.54 59.4132C1045.39 65.0756 1054.61 72.4498 1054.61 88.3835C1054.61 105.239 1041.44 116.564 1021.82 116.564Z" fill="white"/>
</svg>
