<svg width="1059" height="141" viewBox="0 0 1059 141" fill="none" xmlns="http://www.w3.org/2000/svg">
<path d="M101.022 48.7939C101.025 46.7929 102.934 45.3406 104.821 46.0068C123.968 52.767 134.589 68.9061 134.549 93.8242C134.519 112.652 128.495 126.512 117.38 135.115C111.443 138.692 104.487 140.75 97.0499 140.75H62.3839C60.706 140.75 59.3471 139.388 59.3497 137.71L59.3702 124.778C59.373 123.102 60.7341 121.745 62.4103 121.748L97.8702 121.806C99.5463 121.808 100.907 120.451 100.91 118.775L101.022 48.7939Z" fill="#8836DA"/>
<path d="M72.1046 42.3643C73.7808 42.3669 75.1375 43.7281 75.1349 45.4043L75.0519 97.2979C75.0492 98.974 73.688 100.331 72.0118 100.328L62.4435 100.312C60.7676 100.31 59.4117 98.9493 59.4142 97.2734L59.4972 45.3799C59.4999 43.7037 60.861 42.3469 62.5372 42.3496L72.1046 42.3643Z" fill="#8836DA"/>
<path d="M72.1681 0C73.846 0.000206409 75.2058 1.36214 75.2032 3.04004L75.1798 17.4746C75.177 19.1506 73.8158 20.5075 72.1398 20.5049L36.6798 20.4482C35.0036 20.4456 33.6425 21.8023 33.6398 23.4785L33.5275 93.8447C33.5242 95.8493 31.6087 97.3026 29.7208 96.6289C10.579 89.796 -0.0399302 73.5005 0.000112838 48.4287C0.0394921 23.826 10.4446 7.81405 29.1573 0.964844C31.9591 0.333608 34.8738 1.40708e-05 37.8663 0H72.1681Z" fill="#8836DA"/>
<path d="M764.363 114.846C751.326 114.846 738.026 109.447 729.862 98.2538L741.45 85.6122C748.166 94.6983 756.198 98.2538 763.968 98.2538C771.474 98.2538 777.399 94.5667 777.399 88.3776C777.399 80.2132 772.132 77.7112 760.939 73.6291C743.688 67.44 735.656 60.4608 735.656 46.239C735.656 31.2272 748.692 20.9559 766.47 20.9559C780.691 20.9559 790.173 26.75 796.757 34.1242L786.09 46.239C780.296 39.9183 772.922 37.548 766.733 37.548C760.017 37.548 755.54 40.445 755.54 45.5806C755.54 51.5064 760.676 54.2717 771.078 57.6954C787.934 63.3578 797.152 70.7321 797.152 86.6657C797.152 103.521 783.983 114.846 764.363 114.846ZM807.532 113.266V22.4044H826.363V113.266H807.532ZM861.016 113.266V38.8648H833.626V22.4044H906.973V38.8648H879.715V113.266H861.016ZM914.272 113.266V22.4044H983.142V38.4697H933.103V59.0123H966.682V74.8142H933.103V97.4637H983.142V113.266H914.272ZM1021.82 114.846C1008.79 114.846 995.487 109.447 987.322 98.2538L998.91 85.6122C1005.63 94.6983 1013.66 98.2538 1021.43 98.2538C1028.93 98.2538 1034.86 94.5667 1034.86 88.3776C1034.86 80.2132 1029.59 77.7112 1018.4 73.6291C1001.15 67.44 993.116 60.4608 993.116 46.239C993.116 31.2272 1006.15 20.9559 1023.93 20.9559C1038.15 20.9559 1047.63 26.75 1054.22 34.1242L1043.55 46.239C1037.76 39.9183 1030.38 37.548 1024.19 37.548C1017.48 37.548 1013 40.445 1013 45.5806C1013 51.5064 1018.14 54.2717 1028.54 57.6954C1045.39 63.3578 1054.61 70.7321 1054.61 86.6657C1054.61 103.521 1041.44 114.846 1021.82 114.846Z" fill="#8836DA"/>
</svg>
