<svg width="135" height="141" viewBox="0 0 135 141" fill="none" xmlns="http://www.w3.org/2000/svg">
<path d="M101.022 48.7939C101.025 46.7929 102.934 45.3406 104.821 46.0068C123.968 52.767 134.589 68.9061 134.549 93.8242C134.519 112.652 128.495 126.512 117.38 135.115C111.443 138.692 104.487 140.75 97.0499 140.75H62.3839C60.706 140.75 59.3471 139.388 59.3497 137.71L59.3702 124.778C59.373 123.102 60.7341 121.745 62.4103 121.748L97.8702 121.806C99.5463 121.808 100.907 120.451 100.91 118.775L101.022 48.7939Z" fill="#8836DA"/>
<path d="M72.1046 42.3643C73.7808 42.3669 75.1375 43.7281 75.1349 45.4043L75.0519 97.2979C75.0492 98.974 73.688 100.331 72.0118 100.328L62.4435 100.312C60.7676 100.31 59.4117 98.9493 59.4142 97.2734L59.4972 45.3799C59.4999 43.7037 60.861 42.3469 62.5372 42.3496L72.1046 42.3643Z" fill="#8836DA"/>
<path d="M72.1681 0C73.846 0.000206409 75.2058 1.36214 75.2032 3.04004L75.1798 17.4746C75.177 19.1506 73.8158 20.5075 72.1398 20.5049L36.6798 20.4482C35.0036 20.4456 33.6425 21.8023 33.6398 23.4785L33.5275 93.8447C33.5242 95.8493 31.6087 97.3026 29.7208 96.6289C10.579 89.796 -0.0399302 73.5005 0.000112838 48.4287C0.0394921 23.826 10.4446 7.81405 29.1573 0.964844C31.9591 0.333608 34.8738 1.40708e-05 37.8663 0H72.1681Z" fill="#8836DA"/>
</svg>
