<svg width="180" height="183" viewBox="0 0 180 183" fill="none" xmlns="http://www.w3.org/2000/svg">
<path fill-rule="evenodd" clip-rule="evenodd" d="M116.888 0.00148195C151.685 0.221874 179.826 28.4947 179.826 63.3394V118.847C179.826 153.828 151.464 182.186 116.478 182.186H63.3479C28.4986 182.186 0.22197 154.049 0.00148195 119.256L0 118.847V63.3394C5.29853e-05 28.4947 28.1407 0.221871 62.9381 0.00148195L63.3479 0H116.478L116.888 0.00148195ZM127.276 66.7241C125.389 66.0579 123.48 67.5108 123.477 69.5121L123.365 139.493C123.362 141.169 122.001 142.526 120.325 142.523L84.8647 142.466C83.1885 142.463 81.8276 143.82 81.8249 145.496L81.8041 158.428C81.8014 160.106 83.1611 161.468 84.8391 161.468H119.505C126.941 161.468 133.897 159.41 139.834 155.833C150.949 147.229 156.974 133.37 157.004 114.542C157.044 89.6238 146.423 73.4842 127.276 66.7241ZM84.9918 63.067C83.3156 63.0644 81.9546 64.4211 81.9519 66.0973L81.8686 117.991C81.8659 119.667 83.2226 121.028 84.8988 121.031L94.467 121.046C96.1432 121.049 97.5042 119.692 97.5069 118.016L97.5899 66.1221C97.5925 64.4459 96.2358 63.0849 94.5596 63.0822L84.9918 63.067ZM60.3214 20.7181C57.3288 20.7181 54.4142 21.0516 51.6123 21.6828C32.8995 28.532 22.4946 44.5438 22.4553 69.1468C22.4152 94.2185 33.0336 110.514 52.1754 117.346C54.0634 118.02 55.9786 116.567 55.9818 114.563L56.0948 44.1962C56.0975 42.5201 57.4585 41.1634 59.1347 41.166L94.5945 41.2223C96.2706 41.225 97.6316 39.8683 97.6343 38.1921L97.6577 23.7579C97.6603 22.0799 96.3007 20.7181 94.6226 20.7181H60.3214Z" fill="#7317B4"/>
</svg>
